inDegrees=no
DataType=double
version=3
OpenSimVersion=4.4-2022-10-11-798caa840
endheader
time	elv_angle	shoulder_elv	shoulder_rot	elbow_flexion	pro_sup	deviation	flexion
3.6031277150	0.2616344683	0.6475308922	0.0000000000	1.6396475027	0.0000000000	0.0000000000	0.0000000000
3.6072980017	0.2604880332	0.6469878439	0.0000000000	1.6393458092	0.0000000000	0.0000000000	0.0000000000
3.6114682884	0.2593337755	0.6464410903	0.0000000000	1.6390420572	0.0000000000	0.0000000000	0.0000000000
3.6156385752	0.2581717804	0.6458906716	0.0000000000	1.6387362690	0.0000000000	0.0000000000	0.0000000000
3.6198088619	0.2570021337	0.6453366284	0.0000000000	1.6384284672	0.0000000000	0.0000000000	0.0000000000
3.6239791486	0.2558249227	0.6447790021	0.0000000000	1.6381186749	0.0000000000	0.0000000000	0.0000000000
3.6281494353	0.2546402355	0.6442178345	0.0000000000	1.6378069151	0.0000000000	0.0000000000	0.0000000000
3.6323197220	0.2534481614	0.6436531679	0.0000000000	1.6374932114	0.0000000000	0.0000000000	0.0000000000
3.6364900087	0.2522487909	0.6430850450	0.0000000000	1.6371775875	0.0000000000	0.0000000000	0.0000000000
3.6406602954	0.2510422152	0.6425135091	0.0000000000	1.6368600676	0.0000000000	0.0000000000	0.0000000000
3.6448305821	0.2498285267	0.6419386040	0.0000000000	1.6365406759	0.0000000000	0.0000000000	0.0000000000
3.6490008688	0.2486078190	0.6413603740	0.0000000000	1.6362194370	0.0000000000	0.0000000000	0.0000000000
3.6531711555	0.2473801862	0.6407788638	0.0000000000	1.6358963758	0.0000000000	0.0000000000	0.0000000000
3.6573414422	0.2461457239	0.6401941185	0.0000000000	1.6355715173	0.0000000000	0.0000000000	0.0000000000
3.6615117289	0.2449045283	0.6396061837	0.0000000000	1.6352448869	0.0000000000	0.0000000000	0.0000000000
3.6656820156	0.2436566966	0.6390151056	0.0000000000	1.6349165101	0.0000000000	0.0000000000	0.0000000000
3.6698523023	0.2424023271	0.6384209306	0.0000000000	1.6345864129	0.0000000000	0.0000000000	0.0000000000
3.6740225891	0.2411415189	0.6378237056	0.0000000000	1.6342546212	0.0000000000	0.0000000000	0.0000000000
3.6781928758	0.2398743718	0.6372234780	0.0000000000	1.6339211615	0.0000000000	0.0000000000	0.0000000000
3.6823631625	0.2386009868	0.6366202956	0.0000000000	1.6335860602	0.0000000000	0.0000000000	0.0000000000
3.6865334492	0.2373214655	0.6360142066	0.0000000000	1.6332493440	0.0000000000	0.0000000000	0.0000000000
3.6907037359	0.2360359105	0.6354052595	0.0000000000	1.6329110401	0.0000000000	0.0000000000	0.0000000000
3.6948740226	0.2347444253	0.6347935033	0.0000000000	1.6325711755	0.0000000000	0.0000000000	0.0000000000
3.6990443093	0.2334471138	0.6341789874	0.0000000000	1.6322297778	0.0000000000	0.0000000000	0.0000000000
3.7032145960	0.2321440813	0.6335617615	0.0000000000	1.6318868745	0.0000000000	0.0000000000	0.0000000000
3.7073848827	0.2308354334	0.6329418756	0.0000000000	1.6315424935	0.0000000000	0.0000000000	0.0000000000
3.7115551694	0.2295212766	0.6323193803	0.0000000000	1.6311966627	0.0000000000	0.0000000000	0.0000000000
3.7157254561	0.2282017182	0.6316943263	0.0000000000	1.6308494105	0.0000000000	0.0000000000	0.0000000000
3.7198957428	0.2268768662	0.6310667648	0.0000000000	1.6305007653	0.0000000000	0.0000000000	0.0000000000
3.7240660295	0.2255468293	0.6304367474	0.0000000000	1.6301507556	0.0000000000	0.0000000000	0.0000000000
3.7282363162	0.2242117170	0.6298043258	0.0000000000	1.6297994102	0.0000000000	0.0000000000	0.0000000000
3.7324066030	0.2228716393	0.6291695521	0.0000000000	1.6294467582	0.0000000000	0.0000000000	0.0000000000
3.7365768897	0.2215267070	0.6285324789	0.0000000000	1.6290928286	0.0000000000	0.0000000000	0.0000000000
3.7407471764	0.2201770315	0.6278931589	0.0000000000	1.6287376509	0.0000000000	0.0000000000	0.0000000000
3.7449174631	0.2188227249	0.6272516453	0.0000000000	1.6283812544	0.0000000000	0.0000000000	0.0000000000
3.7490877498	0.2174638997	0.6266079913	0.0000000000	1.6280236688	0.0000000000	0.0000000000	0.0000000000
3.7532580365	0.2161006694	0.6259622506	0.0000000000	1.6276649240	0.0000000000	0.0000000000	0.0000000000
3.7574283232	0.2147331477	0.6253144771	0.0000000000	1.6273050499	0.0000000000	0.0000000000	0.0000000000
